<svg width="17" height="16" viewBox="0 0 17 16" fill="none" xmlns="http://www.w3.org/2000/svg">
<g clip-path="url(#clip0_587_12085)">
<path d="M16.207 8C16.207 9.58225 15.7378 11.129 14.8588 12.4446C13.9797 13.7602 12.7303 14.7855 11.2685 15.391C9.80669 15.9965 8.19816 16.155 6.64631 15.8463C5.09446 15.5376 3.669 14.7757 2.55018 13.6569C1.43136 12.538 0.669434 11.1126 0.360753 9.56072C0.0520708 8.00887 0.210497 6.40034 0.815999 4.93853C1.4215 3.47672 2.44688 2.22729 3.76247 1.34824C5.07807 0.469192 6.62478 0 8.20704 0C10.3288 0 12.3636 0.842855 13.8639 2.34315C15.3642 3.84344 16.207 5.87827 16.207 8Z" fill="#F7931A" style="fill:#F7931A;fill:color(display-p3 0.9686 0.5765 0.1020);fill-opacity:1;"/>
<path fill-rule="evenodd" clip-rule="evenodd" d="M5.8935 3.65255L7.73204 4.14492L8.14295 2.61328L9.06223 2.86274L8.66732 4.3311L9.41713 4.53255L9.81277 3.04819L10.748 3.29837L10.3451 4.79074C10.3451 4.79074 11.8724 5.12892 12.2317 6.3711C12.591 7.61328 11.4419 8.26564 11.087 8.29037C11.087 8.29037 12.4251 9.02419 11.9655 10.4678C11.5059 11.9115 10.095 12.1696 8.61059 11.8387L8.20768 13.3864L7.27241 13.1362L7.68332 11.6126L6.9415 11.4104L6.53059 12.9449L5.60259 12.6955L6.01423 11.1682L4.12695 10.6591L4.60259 9.6031C4.60259 9.6031 5.13495 9.74855 5.33641 9.79655C5.53786 9.84455 5.66732 9.6351 5.72404 9.42564C5.78077 9.21619 6.63532 5.74492 6.71604 5.4591C6.79677 5.17328 6.76404 4.95001 6.42513 4.86201C6.08623 4.77401 5.62513 4.63655 5.62513 4.63655L5.8935 3.65255ZM7.74804 8.24964L7.23895 10.2736C7.23895 10.2736 9.76332 11.1849 10.0862 9.90274C10.4091 8.62055 7.74804 8.24964 7.74804 8.24964ZM7.98223 7.28965L8.48186 5.4351C8.48186 5.4351 10.6433 5.82201 10.3771 6.85401C10.111 7.88601 8.83677 7.49037 7.98223 7.28965Z" fill="white" style="fill:white;fill-opacity:1;"/>
</g>
<defs>
<clipPath id="clip0_587_12085">
<rect width="16" height="16" fill="white" style="fill:white;fill-opacity:1;" transform="translate(0.207031)"/>
</clipPath>
</defs>
</svg>
